<?xml version="1.0" encoding="UTF-8"?>
<svg width="45" height="65" viewBox="0 0 45 65" fill="none" xmlns="http://www.w3.org/2000/svg">
  <rect width="45" height="65" rx="4" fill="#2A2A2A"/>
  <path d="M22.5 25C19.4624 25 17 27.4624 17 30.5C17 33.5376 19.4624 36 22.5 36C25.5376 36 28 33.5376 28 30.5C28 27.4624 25.5376 25 22.5 25ZM22.5 34C20.567 34 19 32.433 19 30.5C19 28.567 20.567 27 22.5 27C24.433 27 26 28.567 26 30.5C26 32.433 24.433 34 22.5 34Z" fill="#404040"/>
  <path d="M23 29.5C23 29.7761 22.7761 30 22.5 30C22.2239 30 22 29.7761 22 29.5C22 29.2239 22.2239 29 22.5 29C22.7761 29 23 29.2239 23 29.5Z" fill="#404040"/>
  <path d="M25 30.5C25 31.8807 23.8807 33 22.5 33C21.1193 33 20 31.8807 20 30.5C20 29.1193 21.1193 28 22.5 28C23.8807 28 25 29.1193 25 30.5Z" stroke="#404040"/>
</svg>